<svg width="414" height="90" viewBox="0 0 414 90" fill="none" xmlns="http://www.w3.org/2000/svg">
<path d="M62.5078 43.3828C62.5859 42.9922 62.638 42.6797 62.6641 42.4453C62.6901 42.1849 62.599 41.9115 62.3906 41.625C62.4948 41.2083 62.5729 40.8828 62.625 40.6484C62.7031 40.4141 62.7161 40.0885 62.6641 39.6719C62.8984 38.9948 63.25 38.4219 63.7188 37.9531C64.2135 37.4844 64.7474 37.0938 65.3203 36.7812C65.8932 36.4427 66.4922 36.1693 67.1172 35.9609C67.7422 35.7266 68.3281 35.5312 68.875 35.375C68.875 35.2708 68.8229 35.2188 68.7188 35.2188C68.6146 35.2188 68.5885 35.1536 68.6406 35.0234C70.0469 34.763 71.4531 34.3854 72.8594 33.8906C74.2917 33.3958 75.75 32.9531 77.2344 32.5625C78.7188 32.1719 80.2422 31.9375 81.8047 31.8594C83.3672 31.7552 85.0078 31.9505 86.7266 32.4453C86.8307 32.7578 86.974 33.0573 87.1562 33.3438C87.3385 33.6302 87.5208 33.9167 87.7031 34.2031C87.9115 34.4635 88.0938 34.724 88.25 34.9844C88.4062 35.2448 88.4974 35.5182 88.5234 35.8047C88.8359 36.0911 89.0833 36.4036 89.2656 36.7422C89.474 37.0547 89.513 37.4844 89.3828 38.0312C89.0964 38.2396 88.7969 38.4479 88.4844 38.6562C88.1719 38.8646 87.8464 39.0599 87.5078 39.2422C86.3359 38.9557 85.1641 38.8516 83.9922 38.9297C82.8203 39.0078 81.7656 39.099 80.8281 39.2031C80.5417 38.8906 80.2031 38.7474 79.8125 38.7734C79.4219 38.7734 79.0052 38.8385 78.5625 38.9688C78.1458 39.0729 77.7292 39.1901 77.3125 39.3203C76.8958 39.4245 76.5052 39.4505 76.1406 39.3984C75.8542 39.6589 75.4766 39.8411 75.0078 39.9453C74.5391 40.0234 74.0443 40.0885 73.5234 40.1406C73.4974 40.2708 73.5234 40.362 73.6016 40.4141C73.6797 40.4661 73.6927 40.5703 73.6406 40.7266C73.8229 40.9609 74.0703 41.1302 74.3828 41.2344C74.6953 41.3125 75.0078 41.3906 75.3203 41.4688C75.6589 41.5469 75.9583 41.6641 76.2188 41.8203C76.4792 41.9505 76.6484 42.1719 76.7266 42.4844C77.1953 42.5104 77.599 42.6406 77.9375 42.875C78.276 43.0833 78.5625 43.3438 78.7969 43.6562C79.0312 43.9688 79.2005 44.3073 79.3047 44.6719C79.4089 45.0104 79.4479 45.3229 79.4219 45.6094C79.526 45.8698 79.6302 45.974 79.7344 45.9219C79.8646 45.8698 80.0078 45.9349 80.1641 46.1172C80.2682 46.5078 80.5026 46.9245 80.8672 47.3672C81.2578 47.7839 81.5573 48.2396 81.7656 48.7344C81.8177 49.5156 81.8568 50.2188 81.8828 50.8438C81.9349 51.4688 81.8307 52.0807 81.5703 52.6797C81.1276 53.8255 80.4896 54.8542 79.6562 55.7656C78.8229 56.6771 77.8724 57.4844 76.8047 58.1875C75.763 58.8646 74.6562 59.4635 73.4844 59.9844C72.3125 60.4792 71.1536 60.8958 70.0078 61.2344C69.9036 61.2083 69.7734 61.2083 69.6172 61.2344C69.487 61.2604 69.4609 61.1823 69.5391 61C69.3047 61.2083 69.0312 61.3385 68.7188 61.3906C68.4323 61.4427 68.1068 61.4557 67.7422 61.4297C67.4036 61.4297 67.0521 61.4167 66.6875 61.3906C66.349 61.3646 66.0104 61.3776 65.6719 61.4297C65.4635 61.2214 65.2682 61.013 65.0859 60.8047C64.9297 60.5964 64.7995 60.349 64.6953 60.0625C64.5651 60.0365 64.5 59.9583 64.5 59.8281C64.526 59.6719 64.474 59.5938 64.3438 59.5938C64.3438 59.4896 64.3568 59.4115 64.3828 59.3594C64.4089 59.3073 64.4349 59.2552 64.4609 59.2031C64.5651 59.125 64.6042 59.0729 64.5781 59.0469C64.5781 58.9948 64.5391 58.9557 64.4609 58.9297C64.4089 58.8776 64.3438 58.8255 64.2656 58.7734C64.2135 58.7214 64.2005 58.6562 64.2266 58.5781C64.3568 58.3438 64.3958 58.0703 64.3438 57.7578C64.3177 57.4193 64.2917 57.0807 64.2656 56.7422C64.2396 56.4036 64.2656 56.0911 64.3438 55.8047C64.4219 55.4922 64.6432 55.2318 65.0078 55.0234C66.0755 55.1276 67.0781 55.0755 68.0156 54.8672C68.9792 54.6589 69.8776 54.3724 70.7109 54.0078C71.5703 53.6432 72.3776 53.2526 73.1328 52.8359C73.9141 52.3932 74.6693 51.9896 75.3984 51.625C75.4766 51.3646 75.5938 51.1432 75.75 50.9609C75.9323 50.7786 76.1146 50.6094 76.2969 50.4531C76.4792 50.2708 76.6484 50.0885 76.8047 49.9062C76.9609 49.6979 77.0781 49.4505 77.1562 49.1641C77.1823 49.0599 77.1823 48.9818 77.1562 48.9297C77.1302 48.8776 77.0911 48.8385 77.0391 48.8125C76.987 48.7604 76.9349 48.7083 76.8828 48.6562C76.8307 48.6042 76.8047 48.526 76.8047 48.4219C76.7266 48.3958 76.6484 48.3698 76.5703 48.3438C76.5182 48.3177 76.4661 48.3047 76.4141 48.3047C75.737 47.9661 75.0208 47.6797 74.2656 47.4453C73.5104 47.2109 72.8724 46.9505 72.3516 46.6641C72.0391 46.8724 71.7266 46.9245 71.4141 46.8203C71.1016 46.7161 70.724 46.612 70.2812 46.5078C69.1875 46.4557 68.1458 46.3516 67.1562 46.1953C66.1927 46.0391 65.2552 45.7656 64.3438 45.375C64.2917 45.2188 64.2266 45.0885 64.1484 44.9844C64.0703 44.8542 63.888 44.8151 63.6016 44.8672C63.4193 44.6068 63.224 44.3724 63.0156 44.1641C62.8333 43.9297 62.6641 43.6693 62.5078 43.3828ZM107.039 49.2812C107.013 49.5938 107.039 49.8932 107.117 50.1797C107.195 50.4661 107.286 50.7526 107.391 51.0391C107.521 51.2995 107.638 51.5729 107.742 51.8594C107.846 52.1458 107.924 52.4323 107.977 52.7188C108.029 53.0833 108.029 53.487 107.977 53.9297C107.924 54.3464 107.833 54.763 107.703 55.1797C107.573 55.5703 107.404 55.9349 107.195 56.2734C106.987 56.5859 106.74 56.8203 106.453 56.9766C106.089 57.4453 105.646 57.8099 105.125 58.0703C104.604 58.3307 104.122 58.6432 103.68 59.0078C103.393 59.1901 103.068 59.3203 102.703 59.3984C102.365 59.4766 102.013 59.5547 101.648 59.6328C101.362 59.7891 101.023 59.9583 100.633 60.1406C100.242 60.2969 99.8385 60.4531 99.4219 60.6094C99.0052 60.7396 98.5885 60.8438 98.1719 60.9219C97.7552 60.974 97.3906 60.987 97.0781 60.9609C96.2969 61.2474 95.5286 61.4297 94.7734 61.5078C94.0443 61.612 93.1849 61.5599 92.1953 61.3516C91.2578 61.4818 90.3854 61.4427 89.5781 61.2344C88.7969 61.026 88.0938 60.7005 87.4688 60.2578C86.8698 59.7891 86.3359 59.2422 85.8672 58.6172C85.4245 57.9661 85.0599 57.2891 84.7734 56.5859C84.5651 55.1016 84.6172 53.7604 84.9297 52.5625C85.2422 51.3385 85.6849 50.2188 86.2578 49.2031C86.8568 48.1615 87.5339 47.2109 88.2891 46.3516C89.0443 45.4661 89.7734 44.6068 90.4766 43.7734C90.6328 43.8255 90.75 43.8255 90.8281 43.7734C90.9323 43.6953 91.0234 43.6042 91.1016 43.5C91.1797 43.3698 91.2578 43.2526 91.3359 43.1484C91.4401 43.0443 91.5573 42.9792 91.6875 42.9531C91.8698 42.5625 92.1302 42.276 92.4688 42.0938C92.8333 41.8854 93.1198 41.599 93.3281 41.2344C93.5625 41.1823 93.7578 41.1042 93.9141 41C94.0703 40.8958 94.2135 40.7786 94.3438 40.6484C94.5 40.5182 94.6562 40.401 94.8125 40.2969C94.9688 40.1667 95.151 40.0755 95.3594 40.0234V39.5938C95.8281 39.3854 96.1667 39.151 96.375 38.8906C96.6094 38.6042 96.8828 38.2656 97.1953 37.875C97.4297 37.849 97.612 37.8359 97.7422 37.8359C97.8984 37.8359 98.1198 37.8099 98.4062 37.7578C98.6146 37.3932 98.7969 37.1198 98.9531 36.9375C99.1354 36.7552 99.3958 36.5599 99.7344 36.3516C100.047 36.5078 100.385 36.612 100.75 36.6641C101.141 36.7161 101.479 36.8854 101.766 37.1719C101.792 37.4323 101.87 37.6406 102 37.7969C102.13 37.9271 102.273 38.0573 102.43 38.1875C102.586 38.2917 102.729 38.4089 102.859 38.5391C103.016 38.6693 103.12 38.8516 103.172 39.0859C103.276 39.112 103.341 39.099 103.367 39.0469C103.419 38.9948 103.497 38.9818 103.602 39.0078C103.68 39.3724 103.771 39.6198 103.875 39.75C103.979 39.8542 104.083 40.0755 104.188 40.4141C104.057 40.6745 103.953 40.9479 103.875 41.2344C103.823 41.4948 103.667 41.6901 103.406 41.8203C103.38 42.0026 103.432 42.1068 103.562 42.1328C103.693 42.1328 103.771 42.1979 103.797 42.3281C103.823 42.5625 103.784 42.7318 103.68 42.8359C104.305 43.8516 104.865 44.9323 105.359 46.0781C105.854 47.1979 106.414 48.2656 107.039 49.2812ZM102.156 52.9922C102.26 52.7057 102.391 52.4714 102.547 52.2891C102.729 52.1068 102.833 51.8333 102.859 51.4688C102.729 51.2604 102.651 51.1042 102.625 51C102.599 50.8698 102.586 50.6745 102.586 50.4141C102.013 49.6068 101.518 48.7474 101.102 47.8359C100.685 46.8984 100.216 46.026 99.6953 45.2188C99.6432 45.3229 99.5521 45.4271 99.4219 45.5312C99.2917 45.6354 99.1484 45.6094 98.9922 45.4531C98.9401 45.6615 98.849 45.8177 98.7188 45.9219C98.5885 46 98.4453 46.0391 98.2891 46.0391C98.1328 46.013 97.9635 45.974 97.7812 45.9219C97.625 45.8438 97.4818 45.7526 97.3516 45.6484C96.5964 46.2474 95.8411 46.8333 95.0859 47.4062C94.3307 47.9792 93.6536 48.6432 93.0547 49.3984C92.9505 49.4505 92.8854 49.4766 92.8594 49.4766C92.8333 49.4505 92.7552 49.4635 92.625 49.5156C92.4167 50.0104 92.1562 50.4661 91.8438 50.8828C91.5573 51.2734 91.2708 51.6771 90.9844 52.0938C90.6979 52.5104 90.4505 52.9531 90.2422 53.4219C90.0339 53.8906 89.9167 54.4375 89.8906 55.0625C90.3333 55.4271 90.8542 55.6484 91.4531 55.7266C92.0521 55.8047 92.6641 55.8177 93.2891 55.7656C93.9401 55.7135 94.5651 55.6354 95.1641 55.5312C95.7891 55.401 96.362 55.3359 96.8828 55.3359C97.9766 55.0755 98.9141 54.737 99.6953 54.3203C100.477 53.8776 101.297 53.4349 102.156 52.9922ZM115.711 56.9375C115.424 57.9792 115.164 58.7734 114.93 59.3203C114.721 59.8411 114.396 60.388 113.953 60.9609C113.615 60.9089 113.38 60.9479 113.25 61.0781C113.12 61.2083 112.977 61.3255 112.82 61.4297C112.586 61.4818 112.417 61.4818 112.312 61.4297C112.208 61.3776 112.117 61.3125 112.039 61.2344C111.961 61.1823 111.857 61.1172 111.727 61.0391C111.622 60.987 111.453 60.9609 111.219 60.9609C111.167 60.7526 111.102 60.5573 111.023 60.375C110.971 60.1927 110.802 60.1276 110.516 60.1797C110.568 59.9714 110.581 59.8021 110.555 59.6719C110.529 59.5156 110.49 59.3854 110.438 59.2812C110.411 59.151 110.385 59.0339 110.359 58.9297C110.333 58.7995 110.346 58.6432 110.398 58.4609C110.268 58.4609 110.164 58.3698 110.086 58.1875C110.008 58.0052 109.917 57.8229 109.812 57.6406C109.891 57.1719 109.969 56.7292 110.047 56.3125C110.125 55.8958 110.216 55.5052 110.32 55.1406C110.451 54.776 110.555 54.4115 110.633 54.0469C110.711 53.6823 110.672 53.3047 110.516 52.9141C110.62 52.9922 110.698 52.9792 110.75 52.875C110.802 52.7448 110.841 52.5885 110.867 52.4062C110.893 52.1979 110.906 52.0026 110.906 51.8203C110.906 51.612 110.893 51.4427 110.867 51.3125C111.128 50.6354 111.336 49.9453 111.492 49.2422C111.674 48.513 111.831 47.7969 111.961 47.0938C112.117 46.3906 112.273 45.7005 112.43 45.0234C112.586 44.3464 112.794 43.7214 113.055 43.1484C113.341 43.0964 113.654 43.1354 113.992 43.2656C114.357 43.3698 114.578 43.513 114.656 43.6953C115.333 43.1745 115.932 42.5495 116.453 41.8203C116.974 41.0651 117.508 40.3359 118.055 39.6328C118.602 38.9297 119.201 38.3047 119.852 37.7578C120.529 37.2109 121.375 36.8854 122.391 36.7812C122.911 37.1719 123.484 37.5755 124.109 37.9922C124.76 38.3828 125.294 38.9036 125.711 39.5547C125.919 39.6589 126.089 39.776 126.219 39.9062C126.375 40.0104 126.557 40.1276 126.766 40.2578V40.7266C127.078 41.013 127.326 41.3516 127.508 41.7422C127.716 42.1068 127.898 42.5104 128.055 42.9531C128.211 43.3698 128.367 43.7995 128.523 44.2422C128.68 44.6589 128.862 45.0625 129.07 45.4531C129.018 45.5833 128.992 45.7005 128.992 45.8047C128.992 45.8828 129.005 45.974 129.031 46.0781C129.083 46.1823 129.122 46.2865 129.148 46.3906C129.174 46.4948 129.174 46.638 129.148 46.8203C129.07 47.9661 128.693 48.8906 128.016 49.5938C127.365 50.2969 126.57 50.8828 125.633 51.3516C124.695 51.7943 123.693 52.1719 122.625 52.4844C121.557 52.7969 120.594 53.1354 119.734 53.5C119.734 53.6042 119.773 53.6562 119.852 53.6562C119.956 53.6562 119.995 53.7214 119.969 53.8516C120.594 54.2422 121.089 54.5547 121.453 54.7891C121.818 55.0234 122.156 55.2188 122.469 55.375C122.807 55.5312 123.159 55.6745 123.523 55.8047C123.914 55.9089 124.448 56.0391 125.125 56.1953C125.802 56.3516 126.323 56.4818 126.688 56.5859C127.078 56.6641 127.43 56.7422 127.742 56.8203C128.055 56.8724 128.367 56.9245 128.68 56.9766C129.018 57.0026 129.487 57.0417 130.086 57.0938C130.32 57.3281 130.516 57.6146 130.672 57.9531C130.854 58.2656 130.971 58.5911 131.023 58.9297C131.076 59.2422 131.089 59.5547 131.062 59.8672C131.036 60.1536 130.945 60.388 130.789 60.5703C130.815 60.6484 130.867 60.6875 130.945 60.6875C131.049 60.6615 131.154 60.6615 131.258 60.6875C131.102 60.7917 130.971 60.9219 130.867 61.0781C130.763 61.2344 130.659 61.3906 130.555 61.5469C130.451 61.7031 130.333 61.8333 130.203 61.9375C130.073 62.0677 129.891 62.1458 129.656 62.1719C128.849 62.4844 127.833 62.4974 126.609 62.2109C125.385 61.9505 123.836 61.4557 121.961 60.7266C121.023 60.362 120.255 60.0495 119.656 59.7891C119.083 59.5026 118.576 59.2292 118.133 58.9688C117.716 58.6823 117.326 58.3828 116.961 58.0703C116.622 57.7578 116.206 57.3802 115.711 56.9375ZM121.297 43.5391C121.01 43.9557 120.685 44.3333 120.32 44.6719C119.982 45.0104 119.643 45.362 119.305 45.7266C118.992 46.0651 118.706 46.4557 118.445 46.8984C118.185 47.3151 118.003 47.8099 117.898 48.3828C118.81 48.2786 119.76 48.0312 120.75 47.6406C121.74 47.224 122.677 46.8333 123.562 46.4688C123.458 45.6615 123.172 45.0104 122.703 44.5156C122.26 44.0208 121.792 43.6953 121.297 43.5391ZM152.078 42.2109C151.427 42.2109 150.724 42.263 149.969 42.3672C149.214 42.4453 148.471 42.5365 147.742 42.6406C147.221 42.7188 146.714 42.7839 146.219 42.8359C145.75 42.888 145.32 42.9271 144.93 42.9531C144.747 43.526 144.565 44.0339 144.383 44.4766C144.201 44.9193 144.005 45.349 143.797 45.7656C143.589 46.2083 143.393 46.6641 143.211 47.1328C143.055 47.5755 142.898 48.0573 142.742 48.5781C142.482 48.9948 142.26 49.3854 142.078 49.75C141.922 50.0885 141.792 50.4792 141.688 50.9219C141.375 51.3125 141.141 51.7292 140.984 52.1719C140.828 52.5885 140.711 52.9531 140.633 53.2656L140.477 53.7344C140.32 53.8906 140.229 54.0208 140.203 54.125C140.177 54.2031 140.112 54.2812 140.008 54.3594C139.982 54.6458 139.891 54.9323 139.734 55.2188C139.682 55.349 139.643 55.4792 139.617 55.6094C139.591 55.7135 139.578 55.7917 139.578 55.8438C139.578 56.1042 139.513 56.2734 139.383 56.3516C139.409 56.4818 139.409 56.625 139.383 56.7812C139.357 56.9115 139.331 57.0417 139.305 57.1719C139.227 57.4844 139.201 57.7318 139.227 57.9141C139.305 58.0182 139.37 58.1094 139.422 58.1875C139.5 58.2656 139.552 58.3698 139.578 58.5C139.734 58.6042 139.852 58.6693 139.93 58.6953C140.034 58.7734 140.19 58.8646 140.398 58.9688L140.75 59.3594C140.88 60.1146 140.763 60.7135 140.398 61.1562C140.008 61.651 139.344 61.8984 138.406 61.8984H137.938C137.807 61.7682 137.729 61.6641 137.703 61.5859C137.495 61.5078 137.326 61.4427 137.195 61.3906C137.065 61.3385 136.948 61.2344 136.844 61.0781C136.505 60.9219 136.232 60.7917 136.023 60.6875L135.672 60.4922C135.672 60.2057 135.672 60.0495 135.672 60.0234C135.49 59.7891 135.346 59.5286 135.242 59.2422C135.164 58.9557 135.099 58.6693 135.047 58.3828C134.995 58.1484 134.93 57.9271 134.852 57.7188C134.799 57.5104 134.721 57.3281 134.617 57.1719C134.565 55.6615 134.708 54.3854 135.047 53.3438C135.385 52.3021 135.737 51.2995 136.102 50.3359C136.31 49.8151 136.518 49.2943 136.727 48.7734C136.935 48.2266 137.117 47.6667 137.273 47.0938L137.625 46.7031C137.807 46.2865 137.951 45.9479 138.055 45.6875C138.185 45.401 138.315 45.1146 138.445 44.8281C138.523 44.6458 138.589 44.4766 138.641 44.3203C138.719 44.138 138.784 43.9818 138.836 43.8516C138.68 43.8516 138.536 43.8646 138.406 43.8906C138.276 43.8906 138.146 43.9036 138.016 43.9297C137.859 43.9557 137.716 43.9818 137.586 44.0078C137.456 44.0078 137.326 44.0078 137.195 44.0078C137.013 44.0078 136.883 43.9948 136.805 43.9688C136.518 44.099 136.206 44.1641 135.867 44.1641H135.477C135.398 44.1641 135.32 44.1641 135.242 44.1641C135.19 44.138 135.138 44.125 135.086 44.125C134.826 44.125 134.617 44.1641 134.461 44.2422C134.148 44.2422 133.849 44.2422 133.562 44.2422H133.172C133.12 44.2422 133.055 44.2552 132.977 44.2812C132.898 44.2812 132.833 44.2812 132.781 44.2812C132.599 44.2812 132.404 44.2682 132.195 44.2422C131.987 44.1901 131.766 44.099 131.531 43.9688C131.219 43.5521 131.01 43.3307 130.906 43.3047L130.555 42.8359C130.529 42.6797 130.49 42.5365 130.438 42.4062C130.385 42.25 130.333 42.0807 130.281 41.8984C130.177 41.638 130.073 41.3646 129.969 41.0781C129.891 40.7656 129.852 40.401 129.852 39.9844C129.878 39.776 129.93 39.6198 130.008 39.5156C130.086 39.4115 130.151 39.3203 130.203 39.2422L130.32 38.6562L130.828 38.6953H131.922C132.755 38.6953 133.602 38.6693 134.461 38.6172C135.32 38.5391 136.206 38.4609 137.117 38.3828C137.638 38.3307 138.159 38.2786 138.68 38.2266C139.227 38.1745 139.786 38.1224 140.359 38.0703C140.464 37.8359 140.568 37.6146 140.672 37.4062L141.062 37.2109C141.531 37.1849 141.857 37.25 142.039 37.4062C142.247 37.5365 142.417 37.6667 142.547 37.7969C143.12 37.7448 143.693 37.6927 144.266 37.6406C144.865 37.5625 145.464 37.4714 146.062 37.3672C146.948 37.237 147.833 37.1198 148.719 37.0156C149.63 36.9115 150.503 36.8594 151.336 36.8594C151.701 36.8594 152.052 36.8724 152.391 36.8984C152.729 36.9245 153.042 36.9635 153.328 37.0156L153.719 37.2891C153.797 37.4453 153.901 37.5885 154.031 37.7188C154.188 37.849 154.344 37.9792 154.5 38.1094C154.812 38.3958 155.125 38.7344 155.438 39.125C155.75 39.5156 155.867 40.0885 155.789 40.8438C155.581 41.1562 155.424 41.3385 155.32 41.3906L154.969 41.8594L154.578 41.8203C154.422 41.8203 154.279 41.8464 154.148 41.8984C154.018 41.9245 153.888 41.9635 153.758 42.0156C153.654 42.0677 153.549 42.1198 153.445 42.1719C153.341 42.1979 153.224 42.224 153.094 42.25C152.859 42.25 152.664 42.25 152.508 42.25C152.378 42.224 152.234 42.2109 152.078 42.2109ZM170.828 39.0078C170.854 39.1901 170.854 39.3333 170.828 39.4375C170.828 39.5156 170.815 39.5938 170.789 39.6719C170.789 39.75 170.789 39.8411 170.789 39.9453C170.789 40.0234 170.815 40.1536 170.867 40.3359C170.32 41.2214 169.682 41.8333 168.953 42.1719C168.25 42.4844 167.482 42.7188 166.648 42.875C165.815 43.0052 164.956 43.1484 164.07 43.3047C163.211 43.4609 162.352 43.7995 161.492 44.3203C161.154 44.1901 160.841 44.1901 160.555 44.3203C160.294 44.4505 159.904 44.4896 159.383 44.4375C159.227 44.5938 159.031 44.7109 158.797 44.7891C158.562 44.8411 158.328 44.9062 158.094 44.9844C158.198 45.2188 158.237 45.4661 158.211 45.7266C158.211 45.9609 158.25 46.1562 158.328 46.3125C159.24 46.3906 160.242 46.3776 161.336 46.2734C162.456 46.1693 163.549 46.1042 164.617 46.0781C164.643 46.2083 164.63 46.2995 164.578 46.3516C164.526 46.3776 164.513 46.4427 164.539 46.5469C164.721 46.6771 164.904 46.8464 165.086 47.0547C165.268 47.237 165.451 47.4193 165.633 47.6016C165.815 47.7839 165.997 47.9401 166.18 48.0703C166.388 48.1745 166.622 48.2135 166.883 48.1875C166.987 48.3958 167.052 48.6302 167.078 48.8906C167.13 49.125 167.104 49.3724 167 49.6328C166.583 49.9193 166.167 50.2188 165.75 50.5312C165.333 50.8177 164.891 51.0781 164.422 51.3125C163.979 51.5469 163.497 51.7422 162.977 51.8984C162.482 52.0286 161.922 52.0807 161.297 52.0547C161.167 52.0547 161.062 52.0547 160.984 52.0547C160.932 52.0547 160.854 52.0156 160.75 51.9375C160.542 52.0677 160.242 52.1068 159.852 52.0547C159.487 52.0026 159.201 52.0417 158.992 52.1719C158.706 52.0417 158.354 51.9896 157.938 52.0156C157.547 52.0156 157.195 51.9635 156.883 51.8594C156.466 52.4062 156.089 52.9922 155.75 53.6172C155.411 54.2422 155.112 54.9062 154.852 55.6094C155.737 55.7396 156.466 55.7917 157.039 55.7656C157.638 55.7396 158.198 55.7005 158.719 55.6484C159.24 55.5703 159.773 55.5052 160.32 55.4531C160.867 55.375 161.557 55.349 162.391 55.375C162.911 55.0885 163.523 54.9062 164.227 54.8281C164.956 54.724 165.62 54.5677 166.219 54.3594C166.427 54.4375 166.609 54.5807 166.766 54.7891C166.922 54.9714 167.065 55.1536 167.195 55.3359C167.352 55.4922 167.508 55.6354 167.664 55.7656C167.82 55.8958 168.016 55.9479 168.25 55.9219C168.354 56.026 168.419 56.1562 168.445 56.3125C168.497 56.4427 168.536 56.5729 168.562 56.7031C168.589 56.8333 168.628 56.9505 168.68 57.0547C168.758 57.1328 168.875 57.1589 169.031 57.1328C168.641 57.9922 168.185 58.6562 167.664 59.125C167.169 59.5677 166.596 59.9062 165.945 60.1406C165.294 60.375 164.565 60.5573 163.758 60.6875C162.977 60.8177 162.104 60.974 161.141 61.1562C160.906 61.2083 160.711 61.1953 160.555 61.1172C160.398 61.0651 160.216 61.0391 160.008 61.0391C159.409 61.1693 158.693 61.2865 157.859 61.3906C157.026 61.4948 156.18 61.5339 155.32 61.5078C154.461 61.4818 153.641 61.3646 152.859 61.1562C152.078 60.974 151.44 60.6354 150.945 60.1406C150.737 59.9583 150.594 59.75 150.516 59.5156C150.464 59.2552 150.294 59.0599 150.008 58.9297C149.982 58.5911 149.93 58.2135 149.852 57.7969C149.773 57.3802 149.695 56.9505 149.617 56.5078C149.539 56.0391 149.474 55.5833 149.422 55.1406C149.396 54.6979 149.422 54.2943 149.5 53.9297C149.578 53.5391 149.734 53.1875 149.969 52.875C150.229 52.5625 150.32 52.224 150.242 51.8594C150.372 51.8333 150.451 51.7682 150.477 51.6641C150.503 51.5339 150.607 51.4818 150.789 51.5078C150.945 51.0391 151.115 50.5964 151.297 50.1797C151.479 49.763 151.661 49.3594 151.844 48.9688C152.052 48.5781 152.247 48.1875 152.43 47.7969C152.638 47.3802 152.833 46.9245 153.016 46.4297C152.651 46.0911 152.378 45.7266 152.195 45.3359C152.039 44.9193 151.922 44.5156 151.844 44.125C151.766 43.7083 151.701 43.2917 151.648 42.875C151.596 42.4323 151.505 41.9896 151.375 41.5469C151.635 41.1562 151.948 40.8438 152.312 40.6094C152.703 40.349 153.12 40.1406 153.562 39.9844C154.005 39.8281 154.487 39.6979 155.008 39.5938C155.529 39.4896 156.076 39.3724 156.648 39.2422C157.69 38.9036 158.615 38.6432 159.422 38.4609C160.255 38.2786 161.062 38.1354 161.844 38.0312C162.651 37.901 163.484 37.7839 164.344 37.6797C165.203 37.5755 166.18 37.4193 167.273 37.2109C167.508 37.4453 167.729 37.5625 167.938 37.5625C168.042 37.3281 168.159 37.263 168.289 37.3672C168.445 37.4453 168.51 37.3672 168.484 37.1328C168.745 37.5755 169.07 37.9531 169.461 38.2656C169.878 38.5521 170.333 38.7995 170.828 39.0078ZM178.172 58.2656C178.302 59.0469 178.25 59.6589 178.016 60.1016C177.807 60.5443 177.495 60.8698 177.078 61.0781C176.688 61.3125 176.232 61.4427 175.711 61.4688C175.19 61.4948 174.695 61.4688 174.227 61.3906C173.966 61.026 173.732 60.5703 173.523 60.0234C173.315 59.4766 173.12 58.9167 172.938 58.3438C172.755 57.7448 172.586 57.1589 172.43 56.5859C172.299 56.013 172.182 55.5052 172.078 55.0625C172.208 54.75 172.286 54.3984 172.312 54.0078C172.365 53.5911 172.391 53.1745 172.391 52.7578C172.417 52.3411 172.43 51.9245 172.43 51.5078C172.456 51.0651 172.495 50.6484 172.547 50.2578C172.729 49.1641 172.99 48.1224 173.328 47.1328C173.693 46.1432 173.979 45.1146 174.188 44.0469C174.24 43.8125 174.214 43.5911 174.109 43.3828C174.031 43.1745 174.018 42.9792 174.07 42.7969C174.096 42.6927 174.174 42.6276 174.305 42.6016C174.435 42.5495 174.513 42.4583 174.539 42.3281C174.617 42.0417 174.63 41.8073 174.578 41.625C174.552 41.4427 174.604 41.2214 174.734 40.9609C174.865 40.7526 175.021 40.4531 175.203 40.0625C175.411 39.6458 175.49 39.2161 175.438 38.7734C175.672 38.6172 175.893 38.4349 176.102 38.2266C176.31 38.0182 176.518 37.8359 176.727 37.6797C176.961 37.4974 177.208 37.3411 177.469 37.2109C177.755 37.0807 178.094 37.0156 178.484 37.0156C178.693 37.276 178.823 37.5625 178.875 37.875C178.953 38.1875 179.018 38.5 179.07 38.8125C179.148 39.125 179.253 39.4245 179.383 39.7109C179.513 39.9714 179.734 40.1797 180.047 40.3359C180.047 40.5443 180.047 40.8047 180.047 41.1172C180.047 41.4297 180.06 41.7422 180.086 42.0547C180.112 42.3411 180.164 42.6146 180.242 42.875C180.346 43.1094 180.503 43.2656 180.711 43.3438C180.242 44.5938 179.799 45.8307 179.383 47.0547C178.992 48.2786 178.667 49.5156 178.406 50.7656C178.146 51.9896 177.977 53.2266 177.898 54.4766C177.846 55.7266 177.938 56.9896 178.172 58.2656ZM204.695 49.2812C204.669 49.5938 204.695 49.8932 204.773 50.1797C204.852 50.4661 204.943 50.7526 205.047 51.0391C205.177 51.2995 205.294 51.5729 205.398 51.8594C205.503 52.1458 205.581 52.4323 205.633 52.7188C205.685 53.0833 205.685 53.487 205.633 53.9297C205.581 54.3464 205.49 54.763 205.359 55.1797C205.229 55.5703 205.06 55.9349 204.852 56.2734C204.643 56.5859 204.396 56.8203 204.109 56.9766C203.745 57.4453 203.302 57.8099 202.781 58.0703C202.26 58.3307 201.779 58.6432 201.336 59.0078C201.049 59.1901 200.724 59.3203 200.359 59.3984C200.021 59.4766 199.669 59.5547 199.305 59.6328C199.018 59.7891 198.68 59.9583 198.289 60.1406C197.898 60.2969 197.495 60.4531 197.078 60.6094C196.661 60.7396 196.245 60.8438 195.828 60.9219C195.411 60.974 195.047 60.987 194.734 60.9609C193.953 61.2474 193.185 61.4297 192.43 61.5078C191.701 61.612 190.841 61.5599 189.852 61.3516C188.914 61.4818 188.042 61.4427 187.234 61.2344C186.453 61.026 185.75 60.7005 185.125 60.2578C184.526 59.7891 183.992 59.2422 183.523 58.6172C183.081 57.9661 182.716 57.2891 182.43 56.5859C182.221 55.1016 182.273 53.7604 182.586 52.5625C182.898 51.3385 183.341 50.2188 183.914 49.2031C184.513 48.1615 185.19 47.2109 185.945 46.3516C186.701 45.4661 187.43 44.6068 188.133 43.7734C188.289 43.8255 188.406 43.8255 188.484 43.7734C188.589 43.6953 188.68 43.6042 188.758 43.5C188.836 43.3698 188.914 43.2526 188.992 43.1484C189.096 43.0443 189.214 42.9792 189.344 42.9531C189.526 42.5625 189.786 42.276 190.125 42.0938C190.49 41.8854 190.776 41.599 190.984 41.2344C191.219 41.1823 191.414 41.1042 191.57 41C191.727 40.8958 191.87 40.7786 192 40.6484C192.156 40.5182 192.312 40.401 192.469 40.2969C192.625 40.1667 192.807 40.0755 193.016 40.0234V39.5938C193.484 39.3854 193.823 39.151 194.031 38.8906C194.266 38.6042 194.539 38.2656 194.852 37.875C195.086 37.849 195.268 37.8359 195.398 37.8359C195.555 37.8359 195.776 37.8099 196.062 37.7578C196.271 37.3932 196.453 37.1198 196.609 36.9375C196.792 36.7552 197.052 36.5599 197.391 36.3516C197.703 36.5078 198.042 36.612 198.406 36.6641C198.797 36.7161 199.135 36.8854 199.422 37.1719C199.448 37.4323 199.526 37.6406 199.656 37.7969C199.786 37.9271 199.93 38.0573 200.086 38.1875C200.242 38.2917 200.385 38.4089 200.516 38.5391C200.672 38.6693 200.776 38.8516 200.828 39.0859C200.932 39.112 200.997 39.099 201.023 39.0469C201.076 38.9948 201.154 38.9818 201.258 39.0078C201.336 39.3724 201.427 39.6198 201.531 39.75C201.635 39.8542 201.74 40.0755 201.844 40.4141C201.714 40.6745 201.609 40.9479 201.531 41.2344C201.479 41.4948 201.323 41.6901 201.062 41.8203C201.036 42.0026 201.089 42.1068 201.219 42.1328C201.349 42.1328 201.427 42.1979 201.453 42.3281C201.479 42.5625 201.44 42.7318 201.336 42.8359C201.961 43.8516 202.521 44.9323 203.016 46.0781C203.51 47.1979 204.07 48.2656 204.695 49.2812ZM199.812 52.9922C199.917 52.7057 200.047 52.4714 200.203 52.2891C200.385 52.1068 200.49 51.8333 200.516 51.4688C200.385 51.2604 200.307 51.1042 200.281 51C200.255 50.8698 200.242 50.6745 200.242 50.4141C199.669 49.6068 199.174 48.7474 198.758 47.8359C198.341 46.8984 197.872 46.026 197.352 45.2188C197.299 45.3229 197.208 45.4271 197.078 45.5312C196.948 45.6354 196.805 45.6094 196.648 45.4531C196.596 45.6615 196.505 45.8177 196.375 45.9219C196.245 46 196.102 46.0391 195.945 46.0391C195.789 46.013 195.62 45.974 195.438 45.9219C195.281 45.8438 195.138 45.7526 195.008 45.6484C194.253 46.2474 193.497 46.8333 192.742 47.4062C191.987 47.9792 191.31 48.6432 190.711 49.3984C190.607 49.4505 190.542 49.4766 190.516 49.4766C190.49 49.4505 190.411 49.4635 190.281 49.5156C190.073 50.0104 189.812 50.4661 189.5 50.8828C189.214 51.2734 188.927 51.6771 188.641 52.0938C188.354 52.5104 188.107 52.9531 187.898 53.4219C187.69 53.8906 187.573 54.4375 187.547 55.0625C187.99 55.4271 188.51 55.6484 189.109 55.7266C189.708 55.8047 190.32 55.8177 190.945 55.7656C191.596 55.7135 192.221 55.6354 192.82 55.5312C193.445 55.401 194.018 55.3359 194.539 55.3359C195.633 55.0755 196.57 54.737 197.352 54.3203C198.133 53.8776 198.953 53.4349 199.812 52.9922ZM231.297 61.1562C230.151 61.3125 229.109 61.2604 228.172 61C227.234 60.7396 226.388 60.3359 225.633 59.7891C224.904 59.2422 224.266 58.5911 223.719 57.8359C223.198 57.0807 222.768 56.2734 222.43 55.4141C222.195 53.6432 222.26 52.0417 222.625 50.6094C222.99 49.151 223.523 47.8099 224.227 46.5859C224.93 45.362 225.724 44.2161 226.609 43.1484C227.521 42.0807 228.393 41.0521 229.227 40.0625C229.409 40.1406 229.552 40.1406 229.656 40.0625C229.786 39.9844 229.891 39.8802 229.969 39.75C230.073 39.6198 230.177 39.4896 230.281 39.3594C230.411 39.2292 230.555 39.138 230.711 39.0859C230.815 38.8516 230.945 38.6562 231.102 38.5C231.284 38.3438 231.466 38.2005 231.648 38.0703C231.857 37.9141 232.039 37.7578 232.195 37.6016C232.378 37.4453 232.534 37.25 232.664 37.0156C232.924 36.9635 233.146 36.8724 233.328 36.7422C233.536 36.612 233.719 36.4688 233.875 36.3125C234.057 36.1562 234.24 36.013 234.422 35.8828C234.604 35.7526 234.826 35.6484 235.086 35.5703V35.0625C235.659 34.8021 236.076 34.5156 236.336 34.2031C236.596 33.8906 236.909 33.487 237.273 32.9922C237.56 32.9661 237.781 32.9531 237.938 32.9531C238.12 32.9531 238.393 32.9271 238.758 32.875C238.992 32.4323 239.214 32.1068 239.422 31.8984C239.63 31.6901 239.93 31.4557 240.32 31.1953C240.711 31.4036 241.128 31.5339 241.57 31.5859C242.013 31.612 242.417 31.8073 242.781 32.1719C242.807 32.4844 242.898 32.7318 243.055 32.9141C243.211 33.0703 243.38 33.2266 243.562 33.3828C243.745 33.513 243.927 33.6562 244.109 33.8125C244.292 33.9688 244.409 34.1901 244.461 34.4766C244.591 34.4766 244.669 34.4505 244.695 34.3984C244.747 34.3464 244.839 34.3333 244.969 34.3594C245.021 34.5677 245.073 34.737 245.125 34.8672C245.177 34.9974 245.229 35.1146 245.281 35.2188C245.359 35.3229 245.424 35.4401 245.477 35.5703C245.555 35.7005 245.62 35.8568 245.672 36.0391C245.542 36.3516 245.424 36.6901 245.32 37.0547C245.216 37.3932 245.008 37.6276 244.695 37.7578C244.695 37.9661 244.773 38.0833 244.93 38.1094C245.086 38.1094 245.177 38.2005 245.203 38.3828C245.229 38.6172 245.19 38.8125 245.086 38.9688C245.815 40.1927 246.479 41.4818 247.078 42.8359C247.677 44.1641 248.354 45.4401 249.109 46.6641C249.057 47.0286 249.07 47.3932 249.148 47.7578C249.253 48.0964 249.37 48.4349 249.5 48.7734C249.656 49.112 249.799 49.4505 249.93 49.7891C250.06 50.1276 250.151 50.4661 250.203 50.8047C250.255 51.2474 250.255 51.7292 250.203 52.25C250.151 52.7448 250.047 53.2266 249.891 53.6953C249.734 54.1641 249.526 54.6068 249.266 55.0234C249.005 55.4141 248.706 55.7135 248.367 55.9219C247.951 56.4427 247.43 56.8724 246.805 57.2109C246.18 57.5234 245.607 57.901 245.086 58.3438C244.721 58.5521 244.331 58.7083 243.914 58.8125C243.497 58.8906 243.068 58.9818 242.625 59.0859C242.286 59.2943 241.883 59.5026 241.414 59.7109C240.945 59.8932 240.464 60.0625 239.969 60.2188C239.474 60.375 238.979 60.5052 238.484 60.6094C237.99 60.6875 237.547 60.7005 237.156 60.6484C236.219 60.987 235.307 61.2214 234.422 61.3516C233.536 61.4818 232.495 61.4167 231.297 61.1562ZM231.805 46.9375C231.544 47.5365 231.232 48.0833 230.867 48.5781C230.529 49.0469 230.19 49.5286 229.852 50.0234C229.513 50.5182 229.214 51.0521 228.953 51.625C228.719 52.1719 228.589 52.8229 228.562 53.5781C229.083 54.0208 229.695 54.2943 230.398 54.3984C231.128 54.4766 231.87 54.4896 232.625 54.4375C233.38 54.3594 234.135 54.2552 234.891 54.125C235.646 53.9948 236.323 53.9297 236.922 53.9297C236.922 53.6953 237.026 53.5781 237.234 53.5781C238.328 53.474 239.344 53.1745 240.281 52.6797C241.219 52.1589 242.195 51.638 243.211 51.1172C243.341 50.8047 243.51 50.5312 243.719 50.2969C243.927 50.0625 244.044 49.724 244.07 49.2812C243.94 49.0469 243.849 48.8516 243.797 48.6953C243.771 48.5391 243.758 48.3047 243.758 47.9922C243.081 47.0547 242.495 46.0391 242 44.9453C241.505 43.8255 240.932 42.7708 240.281 41.7812C240.229 41.9115 240.125 42.0417 239.969 42.1719C239.812 42.3021 239.643 42.276 239.461 42.0938C239.383 42.3542 239.266 42.5365 239.109 42.6406C238.953 42.7188 238.771 42.7578 238.562 42.7578C238.38 42.7578 238.185 42.7188 237.977 42.6406C237.794 42.5625 237.625 42.4583 237.469 42.3281C236.557 43.0573 235.646 43.7604 234.734 44.4375C233.849 45.1146 233.042 45.9089 232.312 46.8203C232.182 46.8984 232.104 46.9245 232.078 46.8984C232.052 46.8724 231.961 46.8854 231.805 46.9375ZM259.656 53.8906C259.422 53.9427 259.253 54.0859 259.148 54.3203C259.044 54.5286 258.94 54.75 258.836 54.9844C258.758 55.2188 258.667 55.4401 258.562 55.6484C258.484 55.8307 258.354 55.9219 258.172 55.9219C258.146 56.1302 258.068 56.3125 257.938 56.4688C257.833 56.625 257.729 56.7943 257.625 56.9766C257.521 57.1328 257.443 57.3151 257.391 57.5234C257.339 57.7057 257.365 57.9271 257.469 58.1875C257.26 58.3438 257.13 58.5651 257.078 58.8516C257.026 59.138 256.961 59.4115 256.883 59.6719C256.831 59.9323 256.727 60.1536 256.57 60.3359C256.414 60.5182 256.128 60.5964 255.711 60.5703C255.633 60.6745 255.62 60.7396 255.672 60.7656C255.724 60.7917 255.763 60.8828 255.789 61.0391C255.503 60.987 255.281 61 255.125 61.0781C254.995 61.1823 254.826 61.2474 254.617 61.2734C254.122 61.1172 253.706 60.8438 253.367 60.4531C253.055 60.0625 252.768 59.6328 252.508 59.1641C252.273 58.6693 252.052 58.1745 251.844 57.6797C251.661 57.1849 251.479 56.7552 251.297 56.3906C251.375 56.1042 251.388 55.8307 251.336 55.5703C251.284 55.2839 251.193 55.0495 251.062 54.8672C252.339 52.1589 253.732 49.2682 255.242 46.1953C256.753 43.1224 258.185 40.0885 259.539 37.0938C260.138 37.3281 260.724 37.6016 261.297 37.9141C261.896 38.2005 262.43 38.5391 262.898 38.9297C263.393 39.3203 263.81 39.776 264.148 40.2969C264.487 40.7917 264.708 41.3516 264.812 41.9766C264.76 42.1328 264.695 42.1979 264.617 42.1719C264.565 42.1198 264.513 42.1328 264.461 42.2109C264.565 42.3411 264.617 42.4323 264.617 42.4844C264.643 42.5365 264.643 42.5885 264.617 42.6406C264.617 42.6927 264.617 42.7708 264.617 42.875C264.617 42.9531 264.656 43.0703 264.734 43.2266C264.63 43.2005 264.552 43.2135 264.5 43.2656C264.474 43.3177 264.396 43.3177 264.266 43.2656C264.37 43.5521 264.396 43.7865 264.344 43.9688C264.318 44.151 264.266 44.3203 264.188 44.4766C264.109 44.6068 264.044 44.763 263.992 44.9453C263.94 45.1016 263.953 45.3099 264.031 45.5703C263.953 45.5703 263.888 45.5964 263.836 45.6484C263.81 45.6745 263.784 45.7135 263.758 45.7656C263.732 45.7917 263.693 45.8307 263.641 45.8828C263.615 45.9089 263.562 45.9089 263.484 45.8828C263.562 46.4557 263.589 47.0286 263.562 47.6016C263.536 48.1745 263.51 48.7604 263.484 49.3594C263.484 49.9323 263.497 50.5443 263.523 51.1953C263.549 51.8203 263.641 52.4714 263.797 53.1484C264.734 52.6016 265.477 51.8984 266.023 51.0391C266.596 50.1797 267.052 49.2161 267.391 48.1484C267.755 47.0807 268.029 45.9349 268.211 44.7109C268.393 43.487 268.589 42.237 268.797 40.9609C269.031 40.7266 269.214 40.4401 269.344 40.1016C269.474 39.763 269.591 39.4115 269.695 39.0469C269.799 38.6562 269.904 38.2786 270.008 37.9141C270.112 37.5234 270.242 37.1719 270.398 36.8594C270.789 36.9115 271.115 37.0417 271.375 37.25C271.661 37.4323 271.922 37.6406 272.156 37.875C272.391 38.0833 272.638 38.2917 272.898 38.5C273.159 38.6823 273.484 38.7995 273.875 38.8516C274.188 39.2943 274.474 39.724 274.734 40.1406C274.995 40.5573 275.164 41 275.242 41.4688C275.112 41.6771 275.008 41.9115 274.93 42.1719C274.878 42.4323 274.812 42.6927 274.734 42.9531C274.656 43.2135 274.552 43.4609 274.422 43.6953C274.292 43.9036 274.109 44.0859 273.875 44.2422C273.797 44.9193 273.693 45.5443 273.562 46.1172C273.458 46.6641 273.341 47.2109 273.211 47.7578C273.107 48.3047 273.016 48.8776 272.938 49.4766C272.859 50.0495 272.833 50.6875 272.859 51.3906C272.651 51.9896 272.43 52.6276 272.195 53.3047C271.961 53.9818 271.779 54.5938 271.648 55.1406C271.232 55.4792 270.906 55.8828 270.672 56.3516C270.438 56.8203 270.19 57.2891 269.93 57.7578C269.826 57.862 269.76 57.888 269.734 57.8359C269.708 57.7839 269.617 57.7448 269.461 57.7188C269.487 57.8229 269.487 57.901 269.461 57.9531C269.435 58.0052 269.396 58.0573 269.344 58.1094C269.318 58.1354 269.292 58.1875 269.266 58.2656C269.266 58.3438 269.292 58.4479 269.344 58.5781C268.979 58.7344 268.654 58.9557 268.367 59.2422C268.081 59.5286 267.768 59.7891 267.43 60.0234C267.117 60.2578 266.727 60.4141 266.258 60.4922C265.815 60.5703 265.229 60.4792 264.5 60.2188C263.432 59.4375 262.482 58.5391 261.648 57.5234C260.841 56.5078 260.177 55.2969 259.656 53.8906ZM284.539 60.5703C283.81 60.8047 283.016 61.0391 282.156 61.2734C281.297 61.5078 280.438 61.625 279.578 61.625C278.276 61.625 277.247 61.2995 276.492 60.6484C276.362 60.362 276.245 60.1667 276.141 60.0625C276.062 59.9583 275.984 59.8542 275.906 59.75C275.854 59.6198 275.815 59.4505 275.789 59.2422C275.477 58.8776 275.229 58.4609 275.047 57.9922C274.865 57.4974 274.734 57.0026 274.656 56.5078C274.604 55.987 274.591 55.4661 274.617 54.9453C274.669 54.4245 274.76 53.9297 274.891 53.4609C274.943 53.3568 274.969 53.2526 274.969 53.1484C274.995 53.0443 275.021 52.9271 275.047 52.7969C275.151 52.3802 275.255 51.9766 275.359 51.5859C275.49 51.1953 275.659 50.8568 275.867 50.5703C275.763 50.3359 275.763 50.0755 275.867 49.7891C275.971 49.5026 276.089 49.2422 276.219 49.0078C276.583 48.0182 276.883 47.1849 277.117 46.5078C277.378 45.8047 277.638 45.1146 277.898 44.4375C278.341 43.2656 278.758 42.1068 279.148 40.9609C279.539 39.8151 279.891 38.5781 280.203 37.25C280.411 37.1198 280.568 37.0286 280.672 36.9766C280.828 36.9245 280.958 36.8854 281.062 36.8594C281.531 37.0938 282.078 37.3281 282.703 37.5625C283.328 37.7708 283.849 37.875 284.266 37.875C284.474 38.0052 284.604 38.1094 284.656 38.1875C284.708 38.2396 284.76 38.2917 284.812 38.3438C285.099 38.6823 285.346 39.0339 285.555 39.3984C285.763 39.737 285.828 40.1927 285.75 40.7656C285.594 41 285.477 41.1172 285.398 41.1172C285.268 41.638 285.125 42.0807 284.969 42.4453C284.839 42.8099 284.695 43.1745 284.539 43.5391C284.357 43.9297 284.188 44.3203 284.031 44.7109C283.875 45.1016 283.745 45.5833 283.641 46.1562C283.536 46.2865 283.458 46.4036 283.406 46.5078C283.38 46.612 283.341 46.7292 283.289 46.8594C283.237 46.9896 283.172 47.1328 283.094 47.2891C283.042 47.4193 282.951 47.5365 282.82 47.6406C282.742 48.3177 282.612 48.8646 282.43 49.2812C282.273 49.6979 282.104 50.1146 281.922 50.5312C281.609 51.2865 281.323 52.0417 281.062 52.7969C280.828 53.5521 280.685 54.4115 280.633 55.375C280.763 55.3229 280.88 55.2969 280.984 55.2969C281.115 55.2969 281.232 55.2969 281.336 55.2969C281.57 55.2969 281.844 55.3359 282.156 55.4141C282.938 54.9974 283.784 54.75 284.695 54.6719C285.633 54.5938 286.557 54.5417 287.469 54.5156C287.833 54.5156 288.198 54.5156 288.562 54.5156C288.927 54.5156 289.266 54.4896 289.578 54.4375C289.812 54.5677 289.956 54.6458 290.008 54.6719C290.086 54.6719 290.19 54.6719 290.32 54.6719C290.503 54.6719 290.659 54.6849 290.789 54.7109C291.102 54.9974 291.401 55.2057 291.688 55.3359C291.974 55.4661 292.273 55.5833 292.586 55.6875C292.872 55.7917 293.146 55.9089 293.406 56.0391C293.693 56.1432 293.966 56.2995 294.227 56.5078L294.5 58.1875C294.682 58.4219 294.76 58.5781 294.734 58.6562C294.734 58.8646 294.682 59.0208 294.578 59.125L294.656 59.5547C294.266 59.6328 293.992 59.724 293.836 59.8281C293.706 59.9323 293.576 60.0495 293.445 60.1797C293.237 60.2057 293.081 60.2188 292.977 60.2188C292.898 60.2188 292.82 60.2188 292.742 60.2188C292.378 60.2188 291.935 60.2839 291.414 60.4141C290.711 60.1797 289.982 60.0625 289.227 60.0625C288.94 60.0625 288.641 60.0755 288.328 60.1016C288.016 60.1276 287.703 60.1536 287.391 60.1797C287.078 60.2318 286.753 60.2708 286.414 60.2969C286.102 60.3229 285.776 60.3359 285.438 60.3359L284.539 60.5703ZM303.836 58.2656C303.966 59.0469 303.914 59.6589 303.68 60.1016C303.471 60.5443 303.159 60.8698 302.742 61.0781C302.352 61.3125 301.896 61.4427 301.375 61.4688C300.854 61.4948 300.359 61.4688 299.891 61.3906C299.63 61.026 299.396 60.5703 299.188 60.0234C298.979 59.4766 298.784 58.9167 298.602 58.3438C298.419 57.7448 298.25 57.1589 298.094 56.5859C297.964 56.013 297.846 55.5052 297.742 55.0625C297.872 54.75 297.951 54.3984 297.977 54.0078C298.029 53.5911 298.055 53.1745 298.055 52.7578C298.081 52.3411 298.094 51.9245 298.094 51.5078C298.12 51.0651 298.159 50.6484 298.211 50.2578C298.393 49.1641 298.654 48.1224 298.992 47.1328C299.357 46.1432 299.643 45.1146 299.852 44.0469C299.904 43.8125 299.878 43.5911 299.773 43.3828C299.695 43.1745 299.682 42.9792 299.734 42.7969C299.76 42.6927 299.839 42.6276 299.969 42.6016C300.099 42.5495 300.177 42.4583 300.203 42.3281C300.281 42.0417 300.294 41.8073 300.242 41.625C300.216 41.4427 300.268 41.2214 300.398 40.9609C300.529 40.7526 300.685 40.4531 300.867 40.0625C301.076 39.6458 301.154 39.2161 301.102 38.7734C301.336 38.6172 301.557 38.4349 301.766 38.2266C301.974 38.0182 302.182 37.8359 302.391 37.6797C302.625 37.4974 302.872 37.3411 303.133 37.2109C303.419 37.0807 303.758 37.0156 304.148 37.0156C304.357 37.276 304.487 37.5625 304.539 37.875C304.617 38.1875 304.682 38.5 304.734 38.8125C304.812 39.125 304.917 39.4245 305.047 39.7109C305.177 39.9714 305.398 40.1797 305.711 40.3359C305.711 40.5443 305.711 40.8047 305.711 41.1172C305.711 41.4297 305.724 41.7422 305.75 42.0547C305.776 42.3411 305.828 42.6146 305.906 42.875C306.01 43.1094 306.167 43.2656 306.375 43.3438C305.906 44.5938 305.464 45.8307 305.047 47.0547C304.656 48.2786 304.331 49.5156 304.07 50.7656C303.81 51.9896 303.641 53.2266 303.562 54.4766C303.51 55.7266 303.602 56.9896 303.836 58.2656ZM316.375 53.8906C316.141 53.9427 315.971 54.0859 315.867 54.3203C315.763 54.5286 315.659 54.75 315.555 54.9844C315.477 55.2188 315.385 55.4401 315.281 55.6484C315.203 55.8307 315.073 55.9219 314.891 55.9219C314.865 56.1302 314.786 56.3125 314.656 56.4688C314.552 56.625 314.448 56.7943 314.344 56.9766C314.24 57.1328 314.161 57.3151 314.109 57.5234C314.057 57.7057 314.083 57.9271 314.188 58.1875C313.979 58.3438 313.849 58.5651 313.797 58.8516C313.745 59.138 313.68 59.4115 313.602 59.6719C313.549 59.9323 313.445 60.1536 313.289 60.3359C313.133 60.5182 312.846 60.5964 312.43 60.5703C312.352 60.6745 312.339 60.7396 312.391 60.7656C312.443 60.7917 312.482 60.8828 312.508 61.0391C312.221 60.987 312 61 311.844 61.0781C311.714 61.1823 311.544 61.2474 311.336 61.2734C310.841 61.1172 310.424 60.8438 310.086 60.4531C309.773 60.0625 309.487 59.6328 309.227 59.1641C308.992 58.6693 308.771 58.1745 308.562 57.6797C308.38 57.1849 308.198 56.7552 308.016 56.3906C308.094 56.1042 308.107 55.8307 308.055 55.5703C308.003 55.2839 307.911 55.0495 307.781 54.8672C309.057 52.1589 310.451 49.2682 311.961 46.1953C313.471 43.1224 314.904 40.0885 316.258 37.0938C316.857 37.3281 317.443 37.6016 318.016 37.9141C318.615 38.2005 319.148 38.5391 319.617 38.9297C320.112 39.3203 320.529 39.776 320.867 40.2969C321.206 40.7917 321.427 41.3516 321.531 41.9766C321.479 42.1328 321.414 42.1979 321.336 42.1719C321.284 42.1198 321.232 42.1328 321.18 42.2109C321.284 42.3411 321.336 42.4323 321.336 42.4844C321.362 42.5365 321.362 42.5885 321.336 42.6406C321.336 42.6927 321.336 42.7708 321.336 42.875C321.336 42.9531 321.375 43.0703 321.453 43.2266C321.349 43.2005 321.271 43.2135 321.219 43.2656C321.193 43.3177 321.115 43.3177 320.984 43.2656C321.089 43.5521 321.115 43.7865 321.062 43.9688C321.036 44.151 320.984 44.3203 320.906 44.4766C320.828 44.6068 320.763 44.763 320.711 44.9453C320.659 45.1016 320.672 45.3099 320.75 45.5703C320.672 45.5703 320.607 45.5964 320.555 45.6484C320.529 45.6745 320.503 45.7135 320.477 45.7656C320.451 45.7917 320.411 45.8307 320.359 45.8828C320.333 45.9089 320.281 45.9089 320.203 45.8828C320.281 46.4557 320.307 47.0286 320.281 47.6016C320.255 48.1745 320.229 48.7604 320.203 49.3594C320.203 49.9323 320.216 50.5443 320.242 51.1953C320.268 51.8203 320.359 52.4714 320.516 53.1484C321.453 52.6016 322.195 51.8984 322.742 51.0391C323.315 50.1797 323.771 49.2161 324.109 48.1484C324.474 47.0807 324.747 45.9349 324.93 44.7109C325.112 43.487 325.307 42.237 325.516 40.9609C325.75 40.7266 325.932 40.4401 326.062 40.1016C326.193 39.763 326.31 39.4115 326.414 39.0469C326.518 38.6562 326.622 38.2786 326.727 37.9141C326.831 37.5234 326.961 37.1719 327.117 36.8594C327.508 36.9115 327.833 37.0417 328.094 37.25C328.38 37.4323 328.641 37.6406 328.875 37.875C329.109 38.0833 329.357 38.2917 329.617 38.5C329.878 38.6823 330.203 38.7995 330.594 38.8516C330.906 39.2943 331.193 39.724 331.453 40.1406C331.714 40.5573 331.883 41 331.961 41.4688C331.831 41.6771 331.727 41.9115 331.648 42.1719C331.596 42.4323 331.531 42.6927 331.453 42.9531C331.375 43.2135 331.271 43.4609 331.141 43.6953C331.01 43.9036 330.828 44.0859 330.594 44.2422C330.516 44.9193 330.411 45.5443 330.281 46.1172C330.177 46.6641 330.06 47.2109 329.93 47.7578C329.826 48.3047 329.734 48.8776 329.656 49.4766C329.578 50.0495 329.552 50.6875 329.578 51.3906C329.37 51.9896 329.148 52.6276 328.914 53.3047C328.68 53.9818 328.497 54.5938 328.367 55.1406C327.951 55.4792 327.625 55.8828 327.391 56.3516C327.156 56.8203 326.909 57.2891 326.648 57.7578C326.544 57.862 326.479 57.888 326.453 57.8359C326.427 57.7839 326.336 57.7448 326.18 57.7188C326.206 57.8229 326.206 57.901 326.18 57.9531C326.154 58.0052 326.115 58.0573 326.062 58.1094C326.036 58.1354 326.01 58.1875 325.984 58.2656C325.984 58.3438 326.01 58.4479 326.062 58.5781C325.698 58.7344 325.372 58.9557 325.086 59.2422C324.799 59.5286 324.487 59.7891 324.148 60.0234C323.836 60.2578 323.445 60.4141 322.977 60.4922C322.534 60.5703 321.948 60.4792 321.219 60.2188C320.151 59.4375 319.201 58.5391 318.367 57.5234C317.56 56.5078 316.896 55.2969 316.375 53.8906ZM352.742 39.0078C352.768 39.1901 352.768 39.3333 352.742 39.4375C352.742 39.5156 352.729 39.5938 352.703 39.6719C352.703 39.75 352.703 39.8411 352.703 39.9453C352.703 40.0234 352.729 40.1536 352.781 40.3359C352.234 41.2214 351.596 41.8333 350.867 42.1719C350.164 42.4844 349.396 42.7188 348.562 42.875C347.729 43.0052 346.87 43.1484 345.984 43.3047C345.125 43.4609 344.266 43.7995 343.406 44.3203C343.068 44.1901 342.755 44.1901 342.469 44.3203C342.208 44.4505 341.818 44.4896 341.297 44.4375C341.141 44.5938 340.945 44.7109 340.711 44.7891C340.477 44.8411 340.242 44.9062 340.008 44.9844C340.112 45.2188 340.151 45.4661 340.125 45.7266C340.125 45.9609 340.164 46.1562 340.242 46.3125C341.154 46.3906 342.156 46.3776 343.25 46.2734C344.37 46.1693 345.464 46.1042 346.531 46.0781C346.557 46.2083 346.544 46.2995 346.492 46.3516C346.44 46.3776 346.427 46.4427 346.453 46.5469C346.635 46.6771 346.818 46.8464 347 47.0547C347.182 47.237 347.365 47.4193 347.547 47.6016C347.729 47.7839 347.911 47.9401 348.094 48.0703C348.302 48.1745 348.536 48.2135 348.797 48.1875C348.901 48.3958 348.966 48.6302 348.992 48.8906C349.044 49.125 349.018 49.3724 348.914 49.6328C348.497 49.9193 348.081 50.2188 347.664 50.5312C347.247 50.8177 346.805 51.0781 346.336 51.3125C345.893 51.5469 345.411 51.7422 344.891 51.8984C344.396 52.0286 343.836 52.0807 343.211 52.0547C343.081 52.0547 342.977 52.0547 342.898 52.0547C342.846 52.0547 342.768 52.0156 342.664 51.9375C342.456 52.0677 342.156 52.1068 341.766 52.0547C341.401 52.0026 341.115 52.0417 340.906 52.1719C340.62 52.0417 340.268 51.9896 339.852 52.0156C339.461 52.0156 339.109 51.9635 338.797 51.8594C338.38 52.4062 338.003 52.9922 337.664 53.6172C337.326 54.2422 337.026 54.9062 336.766 55.6094C337.651 55.7396 338.38 55.7917 338.953 55.7656C339.552 55.7396 340.112 55.7005 340.633 55.6484C341.154 55.5703 341.688 55.5052 342.234 55.4531C342.781 55.375 343.471 55.349 344.305 55.375C344.826 55.0885 345.438 54.9062 346.141 54.8281C346.87 54.724 347.534 54.5677 348.133 54.3594C348.341 54.4375 348.523 54.5807 348.68 54.7891C348.836 54.9714 348.979 55.1536 349.109 55.3359C349.266 55.4922 349.422 55.6354 349.578 55.7656C349.734 55.8958 349.93 55.9479 350.164 55.9219C350.268 56.026 350.333 56.1562 350.359 56.3125C350.411 56.4427 350.451 56.5729 350.477 56.7031C350.503 56.8333 350.542 56.9505 350.594 57.0547C350.672 57.1328 350.789 57.1589 350.945 57.1328C350.555 57.9922 350.099 58.6562 349.578 59.125C349.083 59.5677 348.51 59.9062 347.859 60.1406C347.208 60.375 346.479 60.5573 345.672 60.6875C344.891 60.8177 344.018 60.974 343.055 61.1562C342.82 61.2083 342.625 61.1953 342.469 61.1172C342.312 61.0651 342.13 61.0391 341.922 61.0391C341.323 61.1693 340.607 61.2865 339.773 61.3906C338.94 61.4948 338.094 61.5339 337.234 61.5078C336.375 61.4818 335.555 61.3646 334.773 61.1562C333.992 60.974 333.354 60.6354 332.859 60.1406C332.651 59.9583 332.508 59.75 332.43 59.5156C332.378 59.2552 332.208 59.0599 331.922 58.9297C331.896 58.5911 331.844 58.2135 331.766 57.7969C331.688 57.3802 331.609 56.9505 331.531 56.5078C331.453 56.0391 331.388 55.5833 331.336 55.1406C331.31 54.6979 331.336 54.2943 331.414 53.9297C331.492 53.5391 331.648 53.1875 331.883 52.875C332.143 52.5625 332.234 52.224 332.156 51.8594C332.286 51.8333 332.365 51.7682 332.391 51.6641C332.417 51.5339 332.521 51.4818 332.703 51.5078C332.859 51.0391 333.029 50.5964 333.211 50.1797C333.393 49.763 333.576 49.3594 333.758 48.9688C333.966 48.5781 334.161 48.1875 334.344 47.7969C334.552 47.3802 334.747 46.9245 334.93 46.4297C334.565 46.0911 334.292 45.7266 334.109 45.3359C333.953 44.9193 333.836 44.5156 333.758 44.125C333.68 43.7083 333.615 43.2917 333.562 42.875C333.51 42.4323 333.419 41.9896 333.289 41.5469C333.549 41.1562 333.862 40.8438 334.227 40.6094C334.617 40.349 335.034 40.1406 335.477 39.9844C335.919 39.8281 336.401 39.6979 336.922 39.5938C337.443 39.4896 337.99 39.3724 338.562 39.2422C339.604 38.9036 340.529 38.6432 341.336 38.4609C342.169 38.2786 342.977 38.1354 343.758 38.0312C344.565 37.901 345.398 37.7839 346.258 37.6797C347.117 37.5755 348.094 37.4193 349.188 37.2109C349.422 37.4453 349.643 37.5625 349.852 37.5625C349.956 37.3281 350.073 37.263 350.203 37.3672C350.359 37.4453 350.424 37.3672 350.398 37.1328C350.659 37.5755 350.984 37.9531 351.375 38.2656C351.792 38.5521 352.247 38.7995 352.742 39.0078Z" fill="#E4D22B"/>
<rect x="2" y="2" width="410" height="86" rx="8" stroke="#E4D22B" stroke-width="4"/>
</svg>
